# xmcd
#
# Track frame offsets:
#	150
#	4484
#	28484
#	48319
#	70557
#	91862
#	112428
#	135627
#	159289
#	181890
#
# Disc length: 2829 seconds
#
# Revision: 0
# Processed by: cddbd v1.5.1PL0 Copyright (c) Steve Scherf et al.
# Submitted via: dBpowerAMP V4.0
#
DISCID=840b0b0a
DTITLE=Waterseed - Knowledge and Growth
DYEAR=2003
DGENRE=Funk
TTITLE0=Intro
TTITLE1=Caught Up
TTITLE2=Pressin'
TTITLE3=Screen Door
TTITLE4=Heavy
TTITLE5=The Way
TTITLE6=The World is Closin' In
TTITLE7=Change Your Ways
TTITLE8=What Makes Them Think
TTITLE9=Be Strong
EXTD=
EXTT0=
EXTT1=
EXTT2=
EXTT3=
EXTT4=
EXTT5=
EXTT6=
EXTT7=
EXTT8=
EXTT9=
PLAYORDER=
